<svg xmlns="http://www.w3.org/2000/svg" viewBox="0 0 1200 1200"><g fill="none" stroke-width="2"><path stroke="#f27e52" d="M471.97 427.2q-2.06 5.88-1.27 12.06" vector-effect="non-scaling-stroke"/><path stroke="#feab90" d="M470.7 439.26c.37 5.67.87 11.98-6.95 11.98q-60.91 0-121.82.03-14.43.01-19.57 1.6-15.73 4.88-17.91 24.14c-.71 6.22 1.06 17.21 1.32 26.47.18 6.35 1.76 12.74 1.91 19.28q.21 9.29.43 11.96 2.58 30.33 4.51 60.71c.33 5.15 1.2 11.5 1.5 17.19q1.27 24.15 3.41 48.23c1.63 18.38 2.28 36.89 3.86 55.31.71 8.24.49 19.38 1.61 25.64 1.89 10.6 1.75 23.13 2.46 31.67q2.83 33.9 3.19 41.29 1.26 25.86 3.42 46.19c3.26 30.56 21.54 59.91 53.85 66.18" vector-effect="non-scaling-stroke"/><path stroke="#f5a486" d="M385.92 927.13c6.24 1.93 11.39 1.62 17.73 1.62h389.06c6.27 0 11.24.31 17.36-1.75" vector-effect="non-scaling-stroke"/><path stroke="#feab90" d="M810.07 927q22.49-4.84 36.62-22.39c2.65-3.29 4.8-7.44 7.06-11.26 5.26-8.87 8.5-18.49 10.25-28.63" vector-effect="non-scaling-stroke"/><path stroke="#f46e40" d="M864 864.72q2.14-3.59 2.51-5.97.79-5.02.33-12.75" vector-effect="non-scaling-stroke"/><path stroke="#feab90" d="M866.84 846q-.79-11.72 1.54-23.21.38-1.89.38-3.62c-.02-10.55 1.35-21 1.97-31.52q.38-6.46 1.2-15.9c.76-8.81.8-17.57 1.81-26.42 1.01-8.72 1.6-20.78 2.08-26.27q2.34-27.04 3.33-47.57.54-11.17 1.45-19.83c.99-9.34.13-19.01 2.12-28.38 1.02-4.8.71-8.85 1.03-13.49" vector-effect="non-scaling-stroke"/><path stroke="#f46e40" d="M883.75 609.79q2.78-11.85 1.96-24.04" vector-effect="non-scaling-stroke"/><path stroke="#feab90" d="M885.71 585.75c1.43-23.24 3.31-46.43 4.59-69.68q.21-3.86.77-8.6 2.19-18.36 1-36.86a1.07 1.04 27.1 0 0-.17-.5q-1.32-1.92-1.73-4.21-.05-.25-.21-.45c-7.01-8.64-10.68-13.83-22.49-13.91q-67.88-.4-135.76-.28c-3.1 0-5.61-.82-5.67-4.25q-.13-8.89-.72-16.14c-.39-4.77-1.8-10.69-2.22-16.16-.25-3.24-2.54-8.16-2.32-10.28q.19-1.77-.84-6.12-7.76-32.62-20.64-59.03-.12-.24-.34-.39c-1.5-1.02-1.44-2.73-2.04-3.84-9.21-16.97-21.6-32.47-35.91-44.42q-2.64-2.22-5.58-4.02c-5.92-3.64-13.64-8.95-20.24-10.87-3.12-.92-6.05-2.5-8.96-3.16q-3.66-.84-7.31-1.73c-11.38-2.77-22.59-1.76-33.86-1.59-3.17.04-5.58 1.44-8.73 1.94q-4.96.79-6.54 1.26c-19.96 5.92-35.94 15.45-49.85 30.96-1.64 1.83-5.42 4.64-6.28 6.74q-.66 1.62-3.3 5.18-12.71 17.12-21.22 39.32-13.47 35.11-17.17 72.54" vector-effect="non-scaling-stroke"/><path stroke="#f4c1af" d="M885.71 585.75q-2.75 11.87-1.96 24.04M866.84 846 864 864.72" vector-effect="non-scaling-stroke"/><path stroke="#f5f8f5" d="M810.07 927q-5.11-1.25-10.11-.38c-4.52.77-9.42.87-13.96.87q-178.03.05-356.06-.11-25.35-.02-36.9-.32-.12 0-3.46-.62-1.89-.35-3.66.69" vector-effect="non-scaling-stroke"/><path stroke="#f2d1c1" d="M470.7 439.26q1.73-5.88 1.27-12.06" vector-effect="non-scaling-stroke"/><path stroke="#fdfaf8" d="M674.96 366.25q2.78-2.15 2.63-5.47a.99.97 26 0 0-.2-.56l-6.07-8.04q-2.46-3.27-2.89-3.59-.94-.72-1.68.2" vector-effect="non-scaling-stroke"/><path stroke="#feab90" d="M666.75 348.79c-3.51-5.77-6.74-11.65-11.34-16.71-9.43-10.38-16.29-18.56-29.46-24.51q-.43-.2-1.12.07a1.04 1.03 47 0 1-.77-.03q-18.97-8.58-38.05-4.12-12.93 3.02-17.18 4.87-4.88 2.14-16.11 9.8a1.01.98-12.9 0 0-.42.65q-.39 2.22-2.44 1.97a1 .99 17.4 0 0-1.01.52c-2.52 4.71-6.59 7.33-9.38 10.96-17.73 23.09-25.8 50.44-31.43 79.25-1.08 5.5-.94 10.81-2.27 16.33-1.59 6.63-.95 13.85-1.77 20.69q-.32 2.72 2.5 2.72h185.25a1 1 0 0 0 1-1.04c-.45-12.06-2.46-23.9-4.31-35.89-1.34-8.64-3.98-17.54-6.17-26.01q-2.91-11.27-7.31-22.06" vector-effect="non-scaling-stroke"/><path stroke="#fda78a" d="m666.75 348.79 8.21 17.46" vector-effect="non-scaling-stroke"/><path stroke="#f4c1af" d="M700.25 775.29q1.8-4.47 1.46-9.29" vector-effect="non-scaling-stroke"/><path stroke="#feab90" d="M701.71 766c2.48-41.22-27.03-66.67-59.29-83.84-7.21-3.84-15.48-6.65-23.33-9.95q-5.98-2.51-13.32-4.8c-13.46-4.2-26.44-9.44-38.28-17.02-3.09-1.97-7.99-4.05-11.34-7.09-2.53-2.28-5.58-4.15-7.86-6.77-1.44-1.66-3.63-3.26-5.29-6.06q-3.56-6.01-5.37-10.72c-1.73-4.52-1.38-13.86-.54-18.39 3.33-17.86 14.46-27.96 29.3-37.13q1.24-.77 4.43-1.98c7.51-2.85 15.66-6.04 24.93-6.63 18.58-1.17 31.8 2.1 50.32 9.05q2.89 1.08 13.51 7.1c4.02 2.28 10.13 8.09 15.14 5.73 6.67-3.14 11.3-14.26 3.52-19.23l-2.8-1.79q-20.34-15.27-44.2-19.72-7.47-1.4-12.16-2.3c-13.44-2.6-25.69-1.97-39.32.84-37.6 7.75-64.13 35.63-66.46 74.3-.24 4.04 1.7 8.21 2.05 12.42.99 11.58 12.23 26.35 20.33 33.57q16.25 14.48 38.17 24.09c1.79.78 3.91.67 5.64 2.33a1.03 1.01-26.1 0 0 .81.27q2.63-.31 4.01 1.96a.98.96 82.9 0 0 .54.43c25.45 8.41 49.65 17.39 71.45 33.5 12.74 9.42 23.42 26.2 22.94 42.59-.85 29-23.42 45.57-49.45 51.77-4.86 1.16-11.74 2.49-17.47 2.59q-38.97.71-72.74-18.98a.96.95 57.3 0 0-.58-.13q-2.31.18-3.39-1.73a1.02 1 73.4 0 0-.92-.51q-1.91.09-2.82-1.75a.97.97 0 0 0-.39-.42q-6.17-3.64-12.05-7.76c-8.98-6.31-20.84 4.59-16.16 13.9 3.28 6.53 16.64 14.07 22.96 17.85 8.11 4.85 18.07 8.3 27.19 12.29 23.95 10.47 56.07 12.16 80.57 6.82q18-3.93 36.42-14.86c1.32-.78 1.49-1.77 2.39-2.54 5.44-4.62 10.53-8.92 14.75-14.85 3.03-4.25 6.38-8.56 8.35-13.22q2.85-6.73 4.35-13.94" vector-effect="non-scaling-stroke"/><path stroke="#f46e40" d="M701.71 766q-2.82 4.34-1.46 9.29" vector-effect="non-scaling-stroke"/></g><path fill="#fe5721" d="M1120.61 600A520.61 520.61 0 0 1 600 1120.61 520.61 520.61 0 0 1 79.39 600 520.61 520.61 0 0 1 600 79.39 520.61 520.61 0 0 1 1120.61 600ZM471.97 427.2q-2.06 5.88-1.27 12.06c.37 5.67.87 11.98-6.95 11.98q-60.91 0-121.82.03-14.43.01-19.57 1.6-15.73 4.88-17.91 24.14c-.71 6.22 1.06 17.21 1.32 26.47.18 6.35 1.76 12.74 1.91 19.28q.21 9.29.43 11.96 2.58 30.33 4.51 60.71c.33 5.15 1.2 11.5 1.5 17.19q1.27 24.15 3.41 48.23c1.63 18.38 2.28 36.89 3.86 55.31.71 8.24.49 19.38 1.61 25.64 1.89 10.6 1.75 23.13 2.46 31.67q2.83 33.9 3.19 41.29 1.26 25.86 3.42 46.19c3.26 30.56 21.54 59.91 53.85 66.18 6.24 1.93 11.39 1.62 17.73 1.62h389.06c6.27 0 11.24.31 17.36-1.75q22.49-4.84 36.62-22.39c2.65-3.29 4.8-7.44 7.06-11.26 5.26-8.87 8.5-18.49 10.25-28.63q2.14-3.59 2.51-5.97.79-5.02.33-12.75-.79-11.72 1.54-23.21.38-1.89.38-3.62c-.02-10.55 1.35-21 1.97-31.52q.38-6.46 1.2-15.9c.76-8.81.8-17.57 1.81-26.42 1.01-8.72 1.6-20.78 2.08-26.27q2.34-27.04 3.33-47.57.54-11.17 1.45-19.83c.99-9.34.13-19.01 2.12-28.38 1.02-4.8.71-8.85 1.03-13.49q2.78-11.85 1.96-24.04c1.43-23.24 3.31-46.43 4.59-69.68q.21-3.86.77-8.6 2.19-18.36 1-36.86a1.07 1.04 27.1 0 0-.17-.5q-1.32-1.92-1.73-4.21-.05-.25-.21-.45c-7.01-8.64-10.68-13.83-22.49-13.91q-67.88-.4-135.76-.28c-3.1 0-5.61-.82-5.67-4.25q-.13-8.89-.72-16.14c-.39-4.77-1.8-10.69-2.22-16.16-.25-3.24-2.54-8.16-2.32-10.28q.19-1.77-.84-6.12-7.76-32.62-20.64-59.03-.12-.24-.34-.39c-1.5-1.02-1.44-2.73-2.04-3.84-9.21-16.97-21.6-32.47-35.91-44.42q-2.64-2.22-5.58-4.02c-5.92-3.64-13.64-8.95-20.24-10.87-3.12-.92-6.05-2.5-8.96-3.16q-3.66-.84-7.31-1.73c-11.38-2.77-22.59-1.76-33.86-1.59-3.17.04-5.58 1.44-8.73 1.94q-4.96.79-6.54 1.26c-19.96 5.92-35.94 15.45-49.85 30.96-1.64 1.83-5.42 4.64-6.28 6.74q-.66 1.62-3.3 5.18-12.71 17.12-21.22 39.32-13.47 35.11-17.17 72.54Z"/><path fill="#fefefe" d="M885.71 585.75q-2.75 11.87-1.96 24.04c-.32 4.64-.01 8.69-1.03 13.49-1.99 9.37-1.13 19.04-2.12 28.38q-.91 8.66-1.45 19.83-.99 20.53-3.33 47.57c-.48 5.49-1.07 17.55-2.08 26.27-1.01 8.85-1.05 17.61-1.81 26.42q-.82 9.44-1.2 15.9c-.62 10.52-1.99 20.97-1.97 31.52q0 1.73-.38 3.62-2.33 11.49-1.54 23.21L864 864.72c-1.75 10.14-4.99 19.76-10.25 28.63-2.26 3.82-4.41 7.97-7.06 11.26q-14.13 17.55-36.62 22.39-5.11-1.25-10.11-.38c-4.52.77-9.42.87-13.96.87q-178.03.05-356.06-.11-25.35-.02-36.9-.32-.12 0-3.46-.62-1.89-.35-3.66.69c-32.31-6.27-50.59-35.62-53.85-66.18q-2.16-20.33-3.42-46.19-.36-7.39-3.19-41.29c-.71-8.54-.57-21.07-2.46-31.67-1.12-6.26-.9-17.4-1.61-25.64-1.58-18.42-2.23-36.93-3.86-55.31q-2.14-24.08-3.41-48.23c-.3-5.69-1.17-12.04-1.5-17.19q-1.93-30.38-4.51-60.71-.22-2.67-.43-11.96c-.15-6.54-1.73-12.93-1.91-19.28-.26-9.26-2.03-20.25-1.32-26.47q2.18-19.26 17.91-24.14 5.14-1.59 19.57-1.6 60.91-.03 121.82-.03c7.82 0 7.32-6.31 6.95-11.98q1.73-5.88 1.27-12.06 3.7-37.43 17.17-72.54 8.51-22.2 21.22-39.32 2.64-3.56 3.3-5.18c.86-2.1 4.64-4.91 6.28-6.74 13.91-15.51 29.89-25.04 49.85-30.96q1.58-.47 6.54-1.26c3.15-.5 5.56-1.9 8.73-1.94 11.27-.17 22.48-1.18 33.86 1.59q3.65.89 7.31 1.73c2.91.66 5.84 2.24 8.96 3.16 6.6 1.92 14.32 7.23 20.24 10.87q2.94 1.8 5.58 4.02c14.31 11.95 26.7 27.45 35.91 44.42.6 1.11.54 2.82 2.04 3.84q.22.15.34.39 12.88 26.41 20.64 59.03 1.03 4.35.84 6.12c-.22 2.12 2.07 7.04 2.32 10.28.42 5.47 1.83 11.39 2.22 16.16q.59 7.25.72 16.14c.06 3.43 2.57 4.25 5.67 4.25q67.88-.12 135.76.28c11.81.08 15.48 5.27 22.49 13.91q.16.2.21.45.41 2.29 1.73 4.21a1.07 1.04 27.1 0 1 .17.5q1.19 18.5-1 36.86-.56 4.74-.77 8.6c-1.28 23.25-3.16 46.44-4.59 69.68Zm-210.75-219.5q2.78-2.15 2.63-5.47a.99.97 26 0 0-.2-.56l-6.07-8.04q-2.46-3.27-2.89-3.59-.94-.72-1.68.2c-3.51-5.77-6.74-11.65-11.34-16.71-9.43-10.38-16.29-18.56-29.46-24.51q-.43-.2-1.12.07a1.04 1.03 47 0 1-.77-.03q-18.97-8.58-38.05-4.12-12.93 3.02-17.18 4.87-4.88 2.14-16.11 9.8a1.01.98-12.9 0 0-.42.65q-.39 2.22-2.44 1.97a1 .99 17.4 0 0-1.01.52c-2.52 4.71-6.59 7.33-9.38 10.96-17.73 23.09-25.8 50.44-31.43 79.25-1.08 5.5-.94 10.81-2.27 16.33-1.59 6.63-.95 13.85-1.77 20.69q-.32 2.72 2.5 2.72h185.25a1 1 0 0 0 1-1.04c-.45-12.06-2.46-23.9-4.31-35.89-1.34-8.64-3.98-17.54-6.17-26.01q-2.91-11.27-7.31-22.06Zm25.29 409.04q1.8-4.47 1.46-9.29c2.48-41.22-27.03-66.67-59.29-83.84-7.21-3.84-15.48-6.65-23.33-9.95q-5.98-2.51-13.32-4.8c-13.46-4.2-26.44-9.44-38.28-17.02-3.09-1.97-7.99-4.05-11.34-7.09-2.53-2.28-5.58-4.15-7.86-6.77-1.44-1.66-3.63-3.26-5.29-6.06q-3.56-6.01-5.37-10.72c-1.73-4.52-1.38-13.86-.54-18.39 3.33-17.86 14.46-27.96 29.3-37.13q1.24-.77 4.43-1.98c7.51-2.85 15.66-6.04 24.93-6.63 18.58-1.17 31.8 2.1 50.32 9.05q2.89 1.08 13.51 7.1c4.02 2.28 10.13 8.09 15.14 5.73 6.67-3.14 11.3-14.26 3.52-19.23l-2.8-1.79q-20.34-15.27-44.2-19.72-7.47-1.4-12.16-2.3c-13.44-2.6-25.69-1.97-39.32.84-37.6 7.75-64.13 35.63-66.46 74.3-.24 4.04 1.7 8.21 2.05 12.42.99 11.58 12.23 26.35 20.33 33.57q16.25 14.48 38.17 24.09c1.79.78 3.91.67 5.64 2.33a1.03 1.01-26.1 0 0 .81.27q2.63-.31 4.01 1.96a.98.96 82.9 0 0 .54.43c25.45 8.41 49.65 17.39 71.45 33.5 12.74 9.42 23.42 26.2 22.94 42.59-.85 29-23.42 45.57-49.45 51.77-4.86 1.16-11.74 2.49-17.47 2.59q-38.97.71-72.74-18.98a.96.95 57.3 0 0-.58-.13q-2.31.18-3.39-1.73a1.02 1 73.4 0 0-.92-.51q-1.91.09-2.82-1.75a.97.97 0 0 0-.39-.42q-6.17-3.64-12.05-7.76c-8.98-6.31-20.84 4.59-16.16 13.9 3.28 6.53 16.64 14.07 22.96 17.85 8.11 4.85 18.07 8.3 27.19 12.29 23.95 10.47 56.07 12.16 80.57 6.82q18-3.93 36.42-14.86c1.32-.78 1.49-1.77 2.39-2.54 5.44-4.62 10.53-8.92 14.75-14.85 3.03-4.25 6.38-8.56 8.35-13.22q2.85-6.73 4.35-13.94Z"/><path fill="#fe5721" d="m666.75 348.79 8.21 17.46q4.4 10.79 7.31 22.06c2.19 8.47 4.83 17.37 6.17 26.01 1.85 11.99 3.86 23.83 4.31 35.89a1 1 0 0 1-1 1.04H506.5q-2.82 0-2.5-2.72c.82-6.84.18-14.06 1.77-20.69 1.33-5.52 1.19-10.83 2.27-16.33 5.63-28.81 13.7-56.16 31.43-79.25 2.79-3.63 6.86-6.25 9.38-10.96a1 .99 17.4 0 1 1.01-.52q2.05.25 2.44-1.97a1.01.98-12.9 0 1 .42-.65q11.23-7.66 16.11-9.8 4.25-1.85 17.18-4.87 19.08-4.46 38.05 4.12a1.04 1.03 47 0 0 .77.03q.69-.27 1.12-.07c13.17 5.95 20.03 14.13 29.46 24.51 4.6 5.06 7.83 10.94 11.34 16.71Z"/><path fill="#fbf6f2" d="m674.96 366.25-8.21-17.46q.74-.92 1.68-.2.43.32 2.89 3.59l6.07 8.04a.99.97 26 0 1 .2.56q.15 3.32-2.63 5.47Z"/><path fill="#e6a483" d="M471.97 427.2q.46 6.18-1.27 12.06-.79-6.18 1.27-12.06Z"/><path fill="#fe5721" d="M701.71 766q-2.82 4.34-1.46 9.29-1.5 7.21-4.35 13.94c-1.97 4.66-5.32 8.97-8.35 13.22-4.22 5.93-9.31 10.23-14.75 14.85-.9.77-1.07 1.76-2.39 2.54q-18.42 10.93-36.42 14.86c-24.5 5.34-56.62 3.65-80.57-6.82-9.12-3.99-19.08-7.44-27.19-12.29-6.32-3.78-19.68-11.32-22.96-17.85-4.68-9.31 7.18-20.21 16.16-13.9q5.88 4.12 12.05 7.76a.97.97 0 0 1 .39.42q.91 1.84 2.82 1.75a1.02 1 73.4 0 1 .92.51q1.08 1.91 3.39 1.73a.96.95 57.3 0 1 .58.13q33.77 19.69 72.74 18.98c5.73-.1 12.61-1.43 17.47-2.59 26.03-6.2 48.6-22.77 49.45-51.77.48-16.39-10.2-33.17-22.94-42.59-21.8-16.11-46-25.09-71.45-33.5a.98.96 82.9 0 1-.54-.43q-1.38-2.27-4.01-1.96a1.03 1.01-26.1 0 1-.81-.27c-1.73-1.66-3.85-1.55-5.64-2.33q-21.92-9.61-38.17-24.09c-8.1-7.22-19.34-21.99-20.33-33.57-.35-4.21-2.29-8.38-2.05-12.42 2.33-38.67 28.86-66.55 66.46-74.3 13.63-2.81 25.88-3.44 39.32-.84q4.69.9 12.16 2.3 23.86 4.45 44.2 19.72l2.8 1.79c7.78 4.97 3.15 16.09-3.52 19.23-5.01 2.36-11.12-3.45-15.14-5.73q-10.62-6.02-13.51-7.1c-18.52-6.95-31.74-10.22-50.32-9.05-9.27.59-17.42 3.78-24.93 6.63q-3.19 1.21-4.43 1.98c-14.84 9.17-25.97 19.27-29.3 37.13-.84 4.53-1.19 13.87.54 18.39q1.81 4.71 5.37 10.72c1.66 2.8 3.85 4.4 5.29 6.06 2.28 2.62 5.33 4.49 7.86 6.77 3.35 3.04 8.25 5.12 11.34 7.09 11.84 7.58 24.82 12.82 38.28 17.02q7.34 2.29 13.32 4.8c7.85 3.3 16.12 6.11 23.33 9.95 32.26 17.17 61.77 42.62 59.29 83.84Z"/><path fill="#ea845f" d="M885.71 585.75q.82 12.19-1.96 24.04-.79-12.17 1.96-24.04ZM701.71 766q.34 4.82-1.46 9.29-1.36-4.95 1.46-9.29Zm165.13 80q.46 7.73-.33 12.75-.37 2.38-2.51 5.97l2.84-18.72Z"/><path fill="#ecf1eb" d="M810.07 927c-6.12 2.06-11.09 1.75-17.36 1.75H403.65c-6.34 0-11.49.31-17.73-1.62q1.77-1.04 3.66-.69 3.34.62 3.46.62 11.55.3 36.9.32 178.03.16 356.06.11c4.54 0 9.44-.1 13.96-.87q5-.87 10.11.38Z"/></svg>